# AST/ASF file generated using VICON BodyLanguage
# -----------------------------------------------
:version 1.10
:name VICON
:units
  mass 1.0
  length 0.45
  angle deg
:documentation
   .ast/.asf automatically generated from VICON data using
   VICON BodyBuilder and BodyLanguage model FoxedUp or BRILLIANT.MOD
:root
   order TX TY TZ RX RY RZ
   axis XYZ
   position 0 0 0  
   orientation 0 0 0 
:bonedata
  begin
     id 1 
     name lhipjoint
     direction 0.660183 -0.676772 0.325788 
     length 2.75133 
     axis 0 0 0  XYZ
  end
  begin
     id 2 
     name lfemur
     direction 0.34202 -0.939693 0  
     length 7.70317  
     axis 0 0 20  XYZ
    dof rx ry rz
    limits (-160.0 20.0)
           (-70.0 70.0)
           (-60.0 70.0)
  end
  begin
     id 3 
     name ltibia
     direction 0.342105 -0.939662 0   
     length 7.18701   
     axis 0 0 20   XYZ
    dof rx
    limits (-10.0 170.0)
  end
  begin
     id 4 
     name lfoot
     direction 0.14163 -0.389126 0.910232   
     length 2.41719   
     axis -90 7.62852e-016 20   XYZ
    dof rx rz
    limits (-45.0 90.0)
           (-70.0 20.0)
  end
  begin
     id 5 
     name ltoes
     direction 1.53533e-011 -4.21926e-011 1   
     length 1.18611   
     axis -90 7.62852e-016 20   XYZ
    dof rx
    limits (-90.0 20.0)
  end
  begin
     id 6 
     name rhipjoint
     direction -0.6658 -0.67229 0.323631   
     length 2.76968  
     axis 0 0 0  XYZ 
  end
  begin
     id 7 
     name rfemur
     direction -0.34202 -0.939693 0   
     length 7.92547   
     axis 0 0 -20   XYZ
    dof rx ry rz
    limits (-160.0 20.0)
           (-70.0 70.0)
           (-70.0 60.0)
  end
  begin
     id 8 
     name rtibia
     direction -0.342022 -0.939692 0   
     length 7.22641   
     axis 0 0 -20   XYZ
    dof rx
    limits (-10.0 170.0)
 end
 begin
     id 9 
     name rfoot
     direction -0.105675 -0.29034 0.951071   
     length 2.48149  
     axis -90 -7.62852e-016 -20   XYZ
    dof rx rz
    limits (-45.0 90.0)
           (-20.0 70.0)
  end
  begin
     id 10 
     name rtoes
     direction -1.5349e-011 -4.21859e-011 1   
     length 1.23343   
     axis -90 -7.62852e-016 -20   XYZ
    dof rx
    limits (-90.0 20.0)
  end
  begin
     id 11 
     name lowerback
     direction 0.0104173 0.993624 -0.112266   
     length 2.00527   
     axis 0 0 0   XYZ
    dof rx ry rz
    limits (-20.0 45.0)
           (-30.0 30.0)
           (-30.0 30.0)
  end
  begin
     id 12 
     name upperback
     direction 0.00733149 0.999856 -0.0152913   
     length 2.01385   
     axis 0 0 0   XYZ
    dof rx ry rz
    limits (-20.0 45.0)
           (-30.0 30.0)
           (-30.0 30.0)
  end
  begin
     id 13 
     name thorax
     direction 0.0026304 0.999318 0.036841   
     length 2.03734   
     axis 0 0 0   XYZ
    dof rx ry rz
    limits (-20.0 45.0)
           (-30.0 30.0)
           (-30.0 30.0)
  end
  begin
     id 14 
     name lowerneck
     direction 0.0293154 0.998757 0.0403082   
     length 1.65303   
     axis 0 0 0   XYZ
    dof rx ry rz
    limits (-20.0 45.0)
           (-30.0 30.0)
           (-30.0 30.0)
  end
  begin
     id 15 
     name upperneck
     direction -0.0376619 0.998184 -0.0470083   
     length 1.60926   
     axis 0 0 0   XYZ
    dof rx ry rz
    limits (-20.0 45.0)
           (-30.0 30.0)
           (-30.0 30.0)
  end
  begin
     id 16
     name head
     direction -0.0170133 0.999635 -0.0209778  
     length 1.73625  
     axis 0 0 0   XYZ
    dof rx ry rz
    limits (-20.0 45.0)
           (-30.0 30.0)
           (-30.0 30.0)
  end
  begin
     id 17 
     name lclavicle
     direction 0.919857 0.39181 -0.0186333  
     length 3.75313  
     axis 0 0 0   XYZ
    dof ry rz
    limits (-20.0 10.0)
           (0.0 20.0)
  end
  begin
     id 18 
     name lhumerus
     direction 1 -4.48988e-011 1.44029e-027   
     length 5.49313   
     axis 180 -30 -90   XYZ
    dof rx ry rz
    limits (-60.0 90.0)
           (-90.0 90.0)
           (-90.0 90.0)
  end
  begin
     id 19
     name lradius
     direction 1 -4.48924e-011 7.46281e-027   
     length 3.29037   
     axis 180 -30 -90   XYZ
    dof rx
    limits (-10.0 170.0)
  end
  begin
     id 20
     name lwrist
     direction 1 -4.48955e-011 2.19879e-026   
     length 1.64519   
     axis -1.34358e-014 90 90   XYZ
    dof ry
    limits (-180.0 0.0)
 end
  begin
     id 21 
     name lhand
     direction 1 -4.48978e-011 4.39747e-026   
     length 0.729656   
     axis -2.80598e-014 90 90   XYZ
    dof rx rz
    limits (-90.0 90.0)
           (-45.0 45.0)
  end
  begin
     id 22 
     name lfingers
     direction 1 -4.49071e-011 8.79411e-026   
     length 0.588268   
     axis -5.61193e-014 90 90   XYZ
    dof rx
    limits (0.0 90.0)
  end
  begin
     id 23
     name lthumb
     direction 0.707107 -6.34817e-011 0.707107   
     length 0.844638   
     axis -90 45 -9.86923e-015   XYZ
    dof rx rz
    limits (-45.0 45.0)
           (-45.0 45.0)
  end
  begin
     id 24 
     name rclavicle
     direction -0.919898 0.388279 0.0550233   
     length 3.7171  
     axis 0 0 0   XYZ 
    dof ry rz
    limits (-10.0 20.0)
           (-20.0 0.0)
  end
  begin
     id 25 
     name rhumerus
     direction -1 -4.48968e-011 9.98372e-028  
     length 5.23684   
     axis 180 30 90   XYZ
    dof rx ry rz
    limits (-90.0 60.0)
           (-90.0 90.0)
           (-90.0 90.0)
  end
  begin
     id 26 
     name rradius
     direction -1 -4.48956e-011 1.01023e-026   
     length 3.38251   
     axis 180 30 90   XYZ
    dof rx
    limits (-10.0 170.0)
  end
  begin
     id 27 
     name rwrist
     direction -1 -4.4892e-011 2.19886e-026   
     length 1.69126   
     axis -1.34358e-014 -90 -90   XYZ
    dof ry
    limits (-180.0 0.0)
  end
  begin
     id 28
     name rhand
     direction -1 -4.49024e-011 4.39727e-026   
     length 0.691454   
     axis -2.80598e-014 -90 -90   XYZ
    dof rx rz
    limits (-90.0 90.0)
           (-45.0 45.0)
  end
  begin
     id 29
     name rfingers
     direction -1 -4.49097e-011 8.79388e-026   
     length 0.557468   
     axis -5.61193e-014 -90 -90   XYZ
    dof rx
    limits (0.0 90.0)
  end
  begin
     id 30
     name rthumb
     direction -0.707107 -6.34938e-011 0.707107   
     length 0.800416   
     axis -90 -45 9.86923e-015   XYZ
    dof rx rz
    limits (-45.0 45.0)
           (-45.0 45.0)
  end
:hierarchy
  begin
    root lhipjoint rhipjoint lowerback
    lhipjoint lfemur
    lfemur ltibia
    ltibia lfoot
    lfoot ltoes
    rhipjoint rfemur
    rfemur rtibia
    rtibia rfoot
    rfoot rtoes
    lowerback upperback
    upperback thorax
    thorax lowerneck lclavicle rclavicle
    lowerneck upperneck
    upperneck head
    lclavicle lhumerus
    lhumerus lradius
    lradius lwrist
    lwrist lhand lthumb
    lhand lfingers
    rclavicle rhumerus
    rhumerus rradius
    rradius rwrist
    rwrist rhand rthumb
    rhand rfingers
  end

#!OML:ASF H:\BabyWalks\Project 1\Capture day 1\Session 1\baby.ASF
:FULLY-SPECIFIED
:DEGREES
1
root -34.6323 17.5276 15.0931 3.34843 71.4058 -1.4204
lowerback 14.7729 -1.29527 -0.320084
upperback 5.88586 -1.39307 3.09704
thorax -1.96839 -0.624239 3.64837
lowerneck -3.32191 5.91897 -0.770444
upperneck -1.52206 7.99754 -7.44036
head 0.377372 4.00662 -2.07009
rclavicle 1.63003e-014 2.06736e-014
rhumerus -47.7933 26.5494 -86.8012
rradius 39.8571
rwrist -1.19462
rhand -11.9857 -14.0405
rfingers 7.12502
rthumb 14.0708 -43.5441
lclavicle 1.63003e-014 2.06736e-014
lhumerus -52.4816 0.848563 85.3112
lradius 46.4508
lwrist 0.832788
lhand -1.56295 10.6063
lfingers 7.12502
lthumb 24.0925 39.1138
rfemur 0.916006 8.7365 21.9148
rtibia 20.1534
rfoot -22.5283 -18.3349
rtoes -6.80987
lfemur -21.0738 1.43902 -18.8207
ltibia 33.2382
lfoot -17.5791 -0.794055
ltoes 0.293053
2
root -34.6346 17.5278 15.0904 3.42811 71.241 -1.3705
lowerback 14.7428 -1.28015 -0.337239
upperback 5.89039 -1.37694 3.09717
thorax -1.94822 -0.617051 3.65474
lowerneck -3.26302 5.9376 -0.753876
upperneck -1.62463 8.01495 -7.50611
head 0.339845 4.01979 -2.0975
rclavicle -2.18663e-014 -2.14687e-014
rhumerus -47.752 26.4982 -86.7774
rradius 39.8092
rwrist -1.22648
rhand -11.9422 -13.8308
rfingers 7.12502
rthumb 14.1127 -43.3315
lclavicle -2.18663e-014 -2.14687e-014
lhumerus -52.4137 0.856377 85.3227
lradius 46.4363
lwrist 0.843372
lhand -1.37994 10.6314
lfingers 7.12502
lthumb 24.268 39.1155
rfemur 0.814552 8.80709 21.8556
rtibia 20.2207
rfoot -22.5769 -18.2044
rtoes -6.68526
lfemur -21.0935 1.53149 -18.832
ltibia 33.2389
lfoot -17.5714 -0.785234
ltoes 0.31696
3
root -34.6371 17.5284 15.0877 3.45637 71.1121 -1.37909
lowerback 14.7641 -1.27148 -0.315772
upperback 5.8488 -1.3631 3.10539
thorax -2.00461 -0.609832 3.65032
lowerneck -3.22192 5.93881 -0.731711
upperneck -1.65072 8.01375 -7.56424
head 0.328448 4.02073 -2.12185
rclavicle 6.04305e-014 3.57812e-014
rhumerus -47.7857 26.4132 -86.7822
rradius 39.8506
rwrist -1.39261
rhand -11.8045 -13.858
rfingers 7.12502
rthumb 14.2454 -43.3495
lclavicle 6.04305e-014 3.57812e-014
lhumerus -52.4229 0.838805 85.3339
lradius 46.4464
lwrist 0.824602
lhand -1.25831 10.6019
lfingers 7.12502
lthumb 24.3846 39.0703
rfemur 0.708389 8.86351 21.8248
rtibia 20.2851
rfoot -22.5386 -18.1499
rtoes -6.83063
lfemur -21.1443 1.53468 -18.8007
ltibia 33.2723
lfoot -17.6043 -0.789972
ltoes 0.562246
4
root -34.6389 17.5223 15.0846 3.59457 70.9684 -1.24901
lowerback 14.7365 -1.26865 -0.323911
upperback 5.85447 -1.36257 3.08683
thorax -1.98431 -0.610108 3.63436
lowerneck -3.24201 5.96819 -0.688241
upperneck -1.63432 8.0544 -7.64312
head 0.344108 4.03991 -2.15281
rclavicle 1.59028e-015 3.65764e-014
rhumerus -47.7807 26.3668 -86.7923
rradius 39.8946
rwrist -1.51205
rhand -11.6596 -13.8356
rfingers 7.12502
rthumb 14.385 -43.3171
lclavicle 1.59028e-015 3.65764e-014
lhumerus -52.3829 0.846204 85.3212
lradius 46.476
lwrist 0.839316
lhand -1.2903 10.5302
lfingers 7.12502
lthumb 24.3539 39.0027
rfemur 0.662611 8.89991 21.7365
rtibia 20.2912
rfoot -22.4735 -18.0458
rtoes -6.99773
lfemur -21.1493 1.60497 -18.8454
ltibia 33.293
lfoot -17.6271 -0.698137
ltoes 0.450695
5
root -34.6403 17.5333 15.0827 3.63005 70.8272 -1.24488
lowerback 14.7119 -1.2559 -0.304847
upperback 5.85341 -1.34457 3.08288
thorax -1.97415 -0.601347 3.61581
lowerneck -3.24229 5.97051 -0.606306
upperneck -1.65429 8.05488 -7.73672
head 0.346012 4.04034 -2.19732
rclavicle -2.5842e-014 -1.27222e-014
rhumerus -47.7913 26.2954 -86.8022
rradius 39.9314
rwrist -1.53567
rhand -11.6902 -13.9399
rfingers 7.12502
rthumb 14.3555 -43.4235
lclavicle -2.5842e-014 -1.27222e-014
lhumerus -52.3325 0.802507 85.3081
lradius 46.5159
lwrist 0.87944
lhand -1.03916 11.0333
lfingers 7.12502
lthumb 24.5947 39.4734
rfemur 0.60866 8.95167 21.6966
rtibia 20.2504
rfoot -22.3967 -17.9455
rtoes -7.05197
lfemur -21.2357 1.511 -18.7808
ltibia 33.3058
lfoot -17.5802 -0.586841
ltoes 1.3441
6
root -34.6422 17.5359 15.0803 3.68054 70.6799 -1.21873
lowerback 14.7 -1.24362 -0.297306
upperback 5.84657 -1.32854 3.08089
thorax -1.97631 -0.593599 3.60664
lowerneck -3.23417 5.98292 -0.547488
upperneck -1.67019 8.06951 -7.82189
head 0.346901 4.04804 -2.23515
rclavicle -1.51076e-014 1.82882e-014
rhumerus -47.8028 26.2362 -86.8101
rradius 39.961
rwrist -1.60037
rhand -11.6444 -13.9433
rfingers 7.12502
rthumb 14.3997 -43.4238
lclavicle -1.51076e-014 1.82882e-014
lhumerus -52.2943 0.774834 85.3063
lradius 46.5438
lwrist 0.902883
lhand -0.93066 11.24
lfingers 7.12502
lthumb 24.6987 39.6658
rfemur 0.560578 9.0019 21.6476
rtibia 20.215
rfoot -22.3244 -17.8426
rtoes -7.12809
lfemur -21.2829 1.50393 -18.7572
ltibia 33.3248
lfoot -17.5848 -0.504541
ltoes 1.67883
7
root -34.6442 17.5382 15.0779 3.72299 70.5359 -1.1957
lowerback 14.6965 -1.23168 -0.288574
upperback 5.83808 -1.31251 3.08027
thorax -1.98468 -0.585753 3.59851
lowerneck -3.22892 5.99495 -0.481129
upperneck -1.6767 8.08415 -7.91247
head 0.35184 4.05531 -2.27581
rclavicle -1.78906e-014 2.22639e-014
rhumerus -47.8238 26.1804 -86.8225
rradius 39.991
rwrist -1.65014
rhand -11.6095 -13.9459
rfingers 7.12502
rthumb 14.4333 -43.424
lclavicle -1.78906e-014 2.22639e-014
lhumerus -52.2611 0.739271 85.3058
lradius 46.5774
lwrist 0.92827
lhand -0.8558 11.441
lfingers 7.12502
lthumb 24.7704 39.8569
rfemur 0.546972 9.04829 21.601
rtibia 20.1169
rfoot -22.2171 -17.7386
rtoes -7.20206
lfemur -21.3176 1.49682 -18.7345
ltibia 33.3294
lfoot -17.5899 -0.420203
ltoes 1.96813
8
root -34.646 17.5397 15.0757 3.75094 70.4015 -1.17588
lowerback 14.7039 -1.22304 -0.277124
upperback 5.83157 -1.29999 3.0808
thorax -1.9966 -0.57949 3.59089
lowerneck -3.2238 6.00649 -0.409343
upperneck -1.6782 8.09832 -8.00766
head 0.358855 4.06216 -2.31889
rclavicle 6.16232e-014 -3.65764e-014
rhumerus -47.8503 26.1298 -86.8389
rradius 40.0231
rwrist -1.68385
rhand -11.5803 -13.9565
rfingers 7.12502
rthumb 14.4614 -43.4325
lclavicle 6.16232e-014 -3.65764e-014
lhumerus -52.2297 0.696652 85.3069
lradius 46.6145
lwrist 0.956133
lhand -0.803476 11.6297
lfingers 7.12502
lthumb 24.8206 40.0388
rfemur 0.507572 9.09091 21.56
rtibia 20.1072
rfoot -22.1679 -17.6357
rtoes -7.25503
lfemur -21.3453 1.49579 -18.7153
ltibia 33.3529
lfoot -17.6165 -0.339374
ltoes 2.17175
9
root -34.648 17.5403 15.0737 3.76009 70.2802 -1.1631
lowerback 14.7268 -1.21879 -0.261762
upperback 5.82489 -1.29213 3.08333
thorax -2.01665 -0.575324 3.58433
lowerneck -3.21372 6.01752 -0.339515
upperneck -1.67792 8.11181 -8.09985
head 0.365364 4.0687 -2.3609
rclavicle 5.28767e-014 2.94201e-014
rhumerus -47.8823 26.0828 -86.8598
rradius 40.055
rwrist -1.70266
rhand -11.554 -13.9839
rfingers 7.12502
rthumb 14.4867 -43.4581
lclavicle 5.28767e-014 2.94201e-014
lhumerus -52.2023 0.64811 85.308
lradius 46.6536
lwrist 0.981791
lhand -0.779777 11.7786
lfingers 7.12502
lthumb 24.8433 40.1846
rfemur 0.470377 9.13343 21.5279
rtibia 20.1271
rfoot -22.1392 -17.5421
rtoes -7.29827
lfemur -21.3575 1.50079 -18.6978
ltibia 33.3786
lfoot -17.6536 -0.273047
ltoes 2.29697
